<svg width="250" height="250" viewBox="0 0 250 250" fill="none" xmlns="http://www.w3.org/2000/svg">
    <path
        d="M77.2749 193.934C80.9742 190.235 86.7333 189.736 91.4109 192.079C112.49 202.637 137.506 202.637 158.585 192.079C163.262 189.736 169.022 190.235 172.721 193.934L193.384 214.597C198.046 219.259 197.599 226.988 192.037 230.528C151.264 256.485 98.7322 256.485 57.9583 230.528C52.3966 226.988 51.9498 219.259 56.6118 214.597L77.2749 193.934Z"
        fill="var(--winter, #13ACFF)" />
    <path
        d="M214.597 56.6117C219.259 51.9498 226.988 52.3966 230.528 57.9582C256.485 98.7321 256.485 151.264 230.528 192.037C226.988 197.599 219.259 198.046 214.597 193.384L193.934 172.721C190.235 169.021 189.736 163.262 192.079 158.585C202.637 137.506 202.637 112.489 192.079 91.4109C189.736 86.7332 190.235 80.9741 193.934 77.2748L214.597 56.6117Z"
        fill="var(--autumn, #FF8A1C)" />
    <path
        d="M56.061 77.2741C59.7603 80.9734 60.259 86.7325 57.9161 91.4102C47.3583 112.489 47.3588 137.506 57.9168 158.585C60.2597 163.262 59.761 169.021 56.0617 172.721L35.3986 193.384C30.7366 198.046 23.0077 197.599 19.4672 192.037C-6.48907 151.264 -6.48908 98.7321 19.4672 57.9582C23.0077 52.3966 30.7366 51.9498 35.3986 56.6117L56.061 77.2741Z"
        fill="var(--spring, #00D346)" />
    <path
        d="M56.6118 35.3985C51.9498 30.7366 52.3966 23.0077 57.9583 19.4672C98.7321 -6.48903 151.264 -6.48908 192.037 19.4672C197.599 23.0077 198.046 30.7366 193.384 35.3985L172.721 56.0616C169.022 59.7609 163.262 60.2597 158.585 57.9167C137.506 47.3587 112.489 47.3583 91.4102 57.9161C86.7326 60.259 80.9735 59.7603 77.2742 56.0609L56.6118 35.3985Z"
        fill="var(--summer, #FFBB01)" />
</svg>